<svg id="Camada_1" data-name="Camada 1" xmlns="http://www.w3.org/2000/svg" viewBox="0 0 661.46 153.98"><defs><style>.cls-1{fill:#2ec482;}.cls-2{fill:#e8eff7;}</style></defs><title>logo</title><path class="cls-1" d="M0,18C0,7.57,8.25.05,19.91,0S39.91,7.41,40,17.82s-8.26,17.93-19.91,18S0,28.38,0,18Zm2.2,30.8L38,48.63l.41,104.05-35.79.14Z"/><path class="cls-2" d="M62.13,48.53l29.14-.11,2.54,12.47h.84c8.29-7.94,18.67-15.06,32.82-15.11C150.36,45.69,160,62.3,160.1,88.1l.25,64.1-35.79.14-.24-59.52c0-13.32-3.39-16.63-10.47-16.61-6.66,0-10.39,3-15.78,8l.27,68.26-35.8.14Z"/><path class="cls-2" d="M173.68,48.09,209.47,48l11.41,45.33q3.81,15.59,7.62,32.43h.83q3.69-16.87,7.37-32.5L247.76,47.8l34.13-.13L249.42,151.85l-41.21.16Z"/><path class="cls-2" d="M289.17,99.67C289,66,313.51,45.05,338.9,45c30.8-.12,45.45,22.3,45.56,50.18a73.52,73.52,0,0,1-1.4,15l-59.3.23c3.37,12.48,12.55,16.6,24.2,16.56,7.07,0,13.73-2.14,21.2-6.33l11.74,21.18A70.18,70.18,0,0,1,343.07,154C312.69,154.1,289.3,134.21,289.17,99.67Zm64.88-12.74C354,79,350.66,72,339.84,72c-7.91,0-14.55,4.64-16.59,15Z"/><path class="cls-2" d="M395.87,139.21l15.73-22.12c9.6,7,18.14,10.33,25.43,10.3,7.49,0,10.39-2.12,10.38-6.28,0-5.41-9.6-7.87-20-12-12.08-4.74-26.27-13.64-26.34-30.7C401,58,417.56,44.64,442.11,44.55c17.07-.07,29.17,6.75,38.35,13.58L464.73,79.42c-7.52-5.38-14.81-8.68-21.26-8.66-6,0-9.15,1.7-9.14,5.86,0,5.42,9.19,7.46,19.61,11.17,12.5,4.53,26.68,12.38,26.76,31.11.07,19.56-15.27,34.6-44.4,34.72C423,153.67,406.73,147.9,395.87,139.21Z"/><path class="cls-2" d="M498.57,110.92l-.15-36.21-13.73.05-.1-26.63,15.81-1.31,4.05-27.07L534,19.63l.11,27.05,23.72-.09.11,27.89-23.72.09.14,35.58c0,11.45,5.88,15.17,12.54,15.15a30.18,30.18,0,0,0,9.15-1.7l5.51,25.78A78.28,78.28,0,0,1,537,153.22C510,153.33,498.67,136.31,498.57,110.92Z"/><path class="cls-2" d="M569,121.05c-.09-21.64,16.51-33.78,56.45-38.1-.86-7.49-5.45-10.8-14.61-10.76-7.49,0-15.39,3-26.18,8.84L572,57.77c14.53-8.79,29.5-13.85,45.73-13.91,27-.11,43.34,14.4,43.47,48.52l.23,57.86-29.13.11-2.54-10H629c-8.3,7.52-17.44,12.55-28.67,12.59C580.73,153.05,569,138.11,569,121.05Zm56.59-2.72,0-14.15c-17.06,2.56-22.45,8-22.43,13.82,0,4.79,3.36,7.48,9.61,7.46C618.49,125.43,621.81,122.51,625.54,118.33Z"/></svg>